HIERARCHY
ROOT hip
{
  OFFSET 0 90.174 2.4664
  CHANNELS 6 Xposition Yposition Zposition Zrotation Xrotation Yrotation
  JOINT abdomen
  {
    OFFSET 0 -1.186 -1.5018
    CHANNELS 6 Xposition Yposition Zposition Zrotation Xrotation Yrotation
    JOINT abdomen2
    {
      OFFSET 0 9.964 0.2134
      CHANNELS 6 Xposition Yposition Zposition Zrotation Xrotation Yrotation
      JOINT chest
      {
        OFFSET 0 13.134 -3.2573
        CHANNELS 6 Xposition Yposition Zposition Zrotation Xrotation Yrotation
        JOINT neck
        {
          OFFSET 0 20.686 -1.6905
          CHANNELS 6 Xposition Yposition Zposition Zrotation Xrotation Yrotation
          JOINT head
          {
            OFFSET 0 7.238 -0.1237
            CHANNELS 6 Xposition Yposition Zposition Zrotation Xrotation Yrotation
            End Site
            {
              OFFSET 0 0 0
            }
          }
        }
        JOINT lCollar
        {
          OFFSET 1.7069 20.075 5.0056
          CHANNELS 6 Xposition Yposition Zposition Zrotation Xrotation Yrotation
          JOINT lShldr
          {
            OFFSET 13.6458 -0.047 -4.849
            CHANNELS 6 Xposition Yposition Zposition Zrotation Xrotation Yrotation
            JOINT lForeArm
            {
              OFFSET 28.3255 -0.9759 2.2888
              CHANNELS 6 Xposition Yposition Zposition Zrotation Xrotation Yrotation
              JOINT lHand
              {
                OFFSET 22.1583 -0.53 10.8316
                CHANNELS 6 Xposition Yposition Zposition Zrotation Xrotation Yrotation
                JOINT lThumb1
                {
                  OFFSET 0.786 0.112 2.5817
                  CHANNELS 6 Xposition Yposition Zposition Zrotation Xrotation Yrotation
                  JOINT lThumb2
                  {
                    OFFSET 0.3601 -0.878 4.2331
                    CHANNELS 6 Xposition Yposition Zposition Zrotation Xrotation Yrotation
                    JOINT lThumb2_End
                    {
                      OFFSET 1.8127 -1.216 2.2227
                      CHANNELS 6 Xposition Yposition Zposition Zrotation Xrotation Yrotation
                      End Site
                      {
                        OFFSET 0.0181 -0.0122 0.0222
                      }
                    }
                  }
                }
                JOINT lCarpal1
                {
                  OFFSET 0.9571 1.114 1.7695
                  CHANNELS 6 Xposition Yposition Zposition Zrotation Xrotation Yrotation
                  JOINT lIndex1
                  {
                    OFFSET 4.1246 0.487 4.1451
                    CHANNELS 6 Xposition Yposition Zposition Zrotation Xrotation Yrotation
                    JOINT lIndex2
                    {
                      OFFSET 3.4052 -1.454 2.7682
                      CHANNELS 6 Xposition Yposition Zposition Zrotation Xrotation Yrotation
                      JOINT lIndex2_End
                      {
                        OFFSET 1.4531 -1.795 1.2713
                        CHANNELS 6 Xposition Yposition Zposition Zrotation Xrotation Yrotation
                        End Site
                        {
                          OFFSET 0.0145 -0.0179 0.0127
                        }
                      }
                    }
                  }
                  JOINT lMid1
                  {
                    OFFSET 5.6954 0.21 2.1184
                    CHANNELS 6 Xposition Yposition Zposition Zrotation Xrotation Yrotation
                    JOINT lMid2
                    {
                      OFFSET 3.9766 -1.54 2.3863
                      CHANNELS 6 Xposition Yposition Zposition Zrotation Xrotation Yrotation
                      JOINT lMid2_End
                      {
                        OFFSET 1.4042 -1.926 1.125
                        CHANNELS 6 Xposition Yposition Zposition Zrotation Xrotation Yrotation
                        End Site
                        {
                          OFFSET 0.014 -0.0193 0.0113
                        }
                      }
                    }
                  }
                }
                JOINT lCarpal2
                {
                  OFFSET 2.0956 0.66 -0.3894
                  CHANNELS 6 Xposition Yposition Zposition Zrotation Xrotation Yrotation
                  JOINT lRing1
                  {
                    OFFSET 5.0395 -0.09 2.4971
                    CHANNELS 6 Xposition Yposition Zposition Zrotation Xrotation Yrotation
                    JOINT lRing2
                    {
                      OFFSET 3.7921 -1.552 1.4806
                      CHANNELS 6 Xposition Yposition Zposition Zrotation Xrotation Yrotation
                      JOINT lRing2_End
                      {
                        OFFSET 1.4655 -1.808 0.9609
                        CHANNELS 6 Xposition Yposition Zposition Zrotation Xrotation Yrotation
                        End Site
                        {
                          OFFSET 0.0147 -0.0181 0.0096
                        }
                      }
                    }
                  }
                  JOINT lPinky1
                  {
                    OFFSET 4.9141 -1.269 0.3591
                    CHANNELS 6 Xposition Yposition Zposition Zrotation Xrotation Yrotation
                    JOINT lPinky2
                    {
                      OFFSET 3.1477 -1.685 0.8462
                      CHANNELS 6 Xposition Yposition Zposition Zrotation Xrotation Yrotation
                      JOINT lPinky2_End
                      {
                        OFFSET 0.8055 -1.585 0.7955
                        CHANNELS 6 Xposition Yposition Zposition Zrotation Xrotation Yrotation
                        End Site
                        {
                          OFFSET 0.0081 -0.0158 0.008
                        }
                      }
                    }
                  }
                }
              }
            }
          }
        }
        JOINT rCollar
        {
          OFFSET -1.7069 20.075 5.0056
          CHANNELS 6 Xposition Yposition Zposition Zrotation Xrotation Yrotation
          JOINT rShldr
          {
            OFFSET -13.6458 -0.047 -4.849
            CHANNELS 6 Xposition Yposition Zposition Zrotation Xrotation Yrotation
            JOINT rForeArm
            {
              OFFSET -28.3255 -0.9759 2.2888
              CHANNELS 6 Xposition Yposition Zposition Zrotation Xrotation Yrotation
              JOINT rHand
              {
                OFFSET -22.1583 -0.53 10.8316
                CHANNELS 6 Xposition Yposition Zposition Zrotation Xrotation Yrotation
                JOINT rThumb1
                {
                  OFFSET -0.786 0.112 2.5817
                  CHANNELS 6 Xposition Yposition Zposition Zrotation Xrotation Yrotation
                  JOINT rThumb2
                  {
                    OFFSET -0.3601 -0.878 4.2331
                    CHANNELS 6 Xposition Yposition Zposition Zrotation Xrotation Yrotation
                    JOINT rThumb2_End
                    {
                      OFFSET -1.8127 -1.216 2.2227
                      CHANNELS 6 Xposition Yposition Zposition Zrotation Xrotation Yrotation
                      End Site
                      {
                        OFFSET -0.0181 -0.0122 0.0222
                      }
                    }
                  }
                }
                JOINT rCarpal1
                {
                  OFFSET -0.9571 1.114 1.7695
                  CHANNELS 6 Xposition Yposition Zposition Zrotation Xrotation Yrotation
                  JOINT rIndex1
                  {
                    OFFSET -4.1246 0.487 4.1451
                    CHANNELS 6 Xposition Yposition Zposition Zrotation Xrotation Yrotation
                    JOINT rIndex2
                    {
                      OFFSET -3.4052 -1.454 2.7682
                      CHANNELS 6 Xposition Yposition Zposition Zrotation Xrotation Yrotation
                      JOINT rIndex2_End
                      {
                        OFFSET -1.4531 -1.795 1.2713
                        CHANNELS 6 Xposition Yposition Zposition Zrotation Xrotation Yrotation
                        End Site
                        {
                          OFFSET -0.0145 -0.018 0.0127
                        }
                      }
                    }
                  }
                  JOINT rMid1
                  {
                    OFFSET -5.6954 0.21 2.1184
                    CHANNELS 6 Xposition Yposition Zposition Zrotation Xrotation Yrotation
                    JOINT rMid2
                    {
                      OFFSET -3.9766 -1.54 2.3863
                      CHANNELS 6 Xposition Yposition Zposition Zrotation Xrotation Yrotation
                      JOINT rMid2_End
                      {
                        OFFSET -1.4042 -1.926 1.125
                        CHANNELS 6 Xposition Yposition Zposition Zrotation Xrotation Yrotation
                        End Site
                        {
                          OFFSET -0.014 -0.0193 0.0113
                        }
                      }
                    }
                  }
                }
                JOINT rCarpal2
                {
                  OFFSET -2.0956 0.66 -0.3894
                  CHANNELS 6 Xposition Yposition Zposition Zrotation Xrotation Yrotation
                  JOINT rRing1
                  {
                    OFFSET -5.0395 -0.09 2.4971
                    CHANNELS 6 Xposition Yposition Zposition Zrotation Xrotation Yrotation
                    JOINT rRing2
                    {
                      OFFSET -3.7921 -1.552 1.4806
                      CHANNELS 6 Xposition Yposition Zposition Zrotation Xrotation Yrotation
                      JOINT rRing2_End
                      {
                        OFFSET -1.4655 -1.808 0.9609
                        CHANNELS 6 Xposition Yposition Zposition Zrotation Xrotation Yrotation
                        End Site
                        {
                          OFFSET -0.0147 -0.0181 0.0096
                        }
                      }
                    }
                  }
                  JOINT rPinky1
                  {
                    OFFSET -4.9141 -1.269 0.3592
                    CHANNELS 6 Xposition Yposition Zposition Zrotation Xrotation Yrotation
                    JOINT rPinky2
                    {
                      OFFSET -3.1477 -1.685 0.8462
                      CHANNELS 6 Xposition Yposition Zposition Zrotation Xrotation Yrotation
                      JOINT rPinky2_End
                      {
                        OFFSET -0.8055 -1.585 0.7955
                        CHANNELS 6 Xposition Yposition Zposition Zrotation Xrotation Yrotation
                        End Site
                        {
                          OFFSET -0.0081 -0.0158 0.008
                        }
                      }
                    }
                  }
                }
              }
            }
          }
        }
      }
    }
  }
  JOINT lThigh
  {
    OFFSET 8.367 -8.2066 0.5982
    CHANNELS 6 Xposition Yposition Zposition Zrotation Xrotation Yrotation
    JOINT lShin
    {
      OFFSET 2.1923 -43.463 -0.4932
      CHANNELS 6 Xposition Yposition Zposition Zrotation Xrotation Yrotation
      JOINT lFoot
      {
        OFFSET 0.7333 -45.8593 -2.6451
        CHANNELS 6 Xposition Yposition Zposition Zrotation Xrotation Yrotation
        End Site
        {
          OFFSET 2.6618 -4.2699 12.3931
        }
      }
    }
  }
  JOINT rThigh
  {
    OFFSET -8.367 -8.2066 0.5982
    CHANNELS 6 Xposition Yposition Zposition Zrotation Xrotation Yrotation
    JOINT rShin
    {
      OFFSET -2.1923 -43.463 -0.4931
      CHANNELS 6 Xposition Yposition Zposition Zrotation Xrotation Yrotation
      JOINT rFoot
      {
        OFFSET -0.7333 -45.8593 -2.6451
        CHANNELS 6 Xposition Yposition Zposition Zrotation Xrotation Yrotation
        End Site
        {
          OFFSET -2.6618 -4.2699 12.3931
        }
      }
    }
  }
}
MOTION
Frames:	4
Frame Time:	0.0333333
-0.622694 90.3968 27.8265 -0.000825723 10.6066 -179.991 1.11022e-016 -1.186 -1.5018 0.00587046 4.40831 -0.151461 0 9.964 0.2134 0.0235744 8.81656 -0.304735 -1.11022e-016 13.134 -3.2573 0.0235744 8.81656 -0.304735 -1.11022e-016 20.686 -1.6905 8.27375e-007 -21.5146 1.24573e-006 1.11022e-016 7.238 -0.1237 9.48014e-008 -36.1919 1.18998e-007 1.7069 20.075 5.0056 -22.7911 11.0558 33.0403 13.6458 -0.047 -4.849 -52.6515 6.4706 -100.808 28.3255 -0.9759 2.2888 -8.33946 9.90656 -51.9945 22.1583 -0.53 10.8316 -4.57537 -1.59746 20.5113 0.786 0.112 2.5817 2.19749e-006 -1.88632e-006 -1.40431e-006 0.3601 -0.878 4.2331 -1.59028e-015 8.54774e-015 3.97569e-016 1.8127 -1.216 2.2227 1.13796e-031 5.46658e-015 -1.19271e-015 0.9571 1.114 1.7695 -1.59028e-015 -2.68359e-015 -0 4.1246 0.487 4.1451 2.19749e-006 -1.88632e-006 -1.40431e-006 3.4052 -1.454 2.7682 -3.18055e-015 -4.96962e-016 -0 1.4531 -1.795 1.2713 -9.65542e-032 -6.95746e-015 -7.95139e-016 5.6954 0.21 2.1184 2.19749e-006 -1.88632e-006 -1.40431e-006 3.9766 -1.54 2.3863 -3.18055e-015 -4.96962e-016 -0 1.4042 -1.926 1.125 -9.65542e-032 -6.95746e-015 -7.95139e-016 2.0956 0.66 -0.3894 -1.59028e-015 -2.68359e-015 -0 5.0395 -0.09 2.4971 2.19749e-006 -1.88632e-006 -1.40431e-006 3.7921 -1.552 1.4806 -3.18055e-015 -4.96962e-016 -0 1.4655 -1.808 0.9609 -9.65542e-032 -6.95746e-015 -7.95139e-016 4.9141 -1.269 0.3591 2.19749e-006 -1.88632e-006 -1.40431e-006 3.1477 -1.685 0.8462 -3.18055e-015 -4.96962e-016 -0 0.8055 -1.585 0.7955 -9.65542e-032 -6.95746e-015 -7.95139e-016 -1.7069 20.075 5.0056 16.4768 10.3452 -20.3291 -13.6458 -0.047 -4.849 56.0794 4.01449 99.7013 -28.3255 -0.9759 2.2888 1.9961 2.06601 23.6496 -22.1583 -0.53 10.8316 6.78095 4.21945 -2.56524 -0.786 0.112 2.5817 -2.87281e-006 -1.75851e-006 -4.03319e-006 -0.3601 -0.878 4.2331 2.87281e-006 1.75851e-006 4.03319e-006 -1.8127 -1.216 2.2227 2.80772e-032 3.59676e-015 -4.47266e-016 -0.9571 1.114 1.7695 -2.40847e-032 4.62796e-015 2.98177e-016 -4.1246 0.487 4.1451 -2.87281e-006 -1.75851e-006 -4.03319e-006 -3.4052 -1.454 2.7682 2.87281e-006 1.75851e-006 4.03319e-006 -1.4531 -1.795 1.2713 -7.95139e-016 3.55949e-015 -4.47266e-016 -5.6954 0.21 2.1184 -2.87281e-006 -1.75851e-006 -4.03319e-006 -3.9766 -1.54 2.3863 2.87281e-006 1.75851e-006 4.03319e-006 -1.4042 -1.926 1.125 -7.95139e-016 3.55949e-015 -4.47266e-016 -2.0956 0.66 -0.3894 -2.40847e-032 4.62796e-015 2.98177e-016 -5.0395 -0.09 2.4971 -2.87281e-006 -1.75851e-006 -4.03319e-006 -3.7921 -1.552 1.4806 2.87281e-006 1.75851e-006 4.03319e-006 -1.4655 -1.808 0.9609 -7.95139e-016 3.55949e-015 -4.47266e-016 -4.9141 -1.269 0.3592 -2.87281e-006 -1.75851e-006 -4.03319e-006 -3.1477 -1.685 0.8462 2.87281e-006 1.75851e-006 4.03319e-006 -0.8055 -1.585 0.7955 -7.95139e-016 3.55949e-015 -4.47266e-016 8.367 -8.2066 0.5982 6.58466 -10.2105 13.6814 2.1923 -43.463 -0.4932 1.94448 40.6697 -0.419165 0.7333 -45.8593 -2.6451 -11.1968 -17.3323 1.36593 -8.367 -8.2066 0.5982 -5.54672 -10.3409 -13.6186 -2.1923 -43.463 -0.4931 -2.14177 40.8565 0.551773 -0.7333 -45.8593 -2.6451 10.3514 -17.2426 -1.87798 
-0.622705 90.3638 28.3309 -0.00142918 9.2104 -179.982 -1.11022e-016 -1.186 -1.5018 0.00630143 4.09135 -0.149354 0 9.964 0.2134 0.0234169 8.18264 -0.300314 -5.55112e-017 13.134 -3.2573 0.0234169 8.18265 -0.300314 -1.11022e-016 20.686 -1.6905 1.12632e-006 -21.0285 -8.17633e-007 0 7.238 -0.1237 -3.20959e-008 -35.3811 8.31837e-009 1.7069 20.075 5.0056 -22.9056 11.0897 33.4261 13.6458 -0.047 -4.849 -52.6514 6.47059 -100.808 28.3255 -0.9759 2.2888 -8.43749 10.144 -52.6012 22.1583 -0.53 10.8316 -4.50577 -1.86849 21.0345 0.786 0.112 2.5817 -3.06907e-007 4.08288e-006 2.61028e-007 0.3601 -0.878 4.2331 -4.08288e-006 -3.06907e-007 2.54824e-006 1.8127 -1.216 2.2227 1.59028e-015 5.96354e-016 7.95139e-016 0.9571 1.114 1.7695 1.59028e-015 1.49089e-015 7.95139e-016 4.1246 0.487 4.1451 -3.06907e-007 4.08288e-006 2.61028e-007 3.4052 -1.454 2.7682 -4.08288e-006 -3.06907e-007 2.54824e-006 1.4531 -1.795 1.2713 1.59028e-015 5.96354e-016 7.95139e-016 5.6954 0.21 2.1184 -3.06907e-007 4.08288e-006 2.61028e-007 3.9766 -1.54 2.3863 -4.08288e-006 -3.06907e-007 2.54824e-006 1.4042 -1.926 1.125 1.59028e-015 5.96354e-016 7.95139e-016 2.0956 0.66 -0.3894 1.59028e-015 1.49089e-015 7.95139e-016 5.0395 -0.09 2.4971 -3.06907e-007 4.08288e-006 2.61028e-007 3.7921 -1.552 1.4806 -4.08288e-006 -3.06907e-007 2.54824e-006 1.4655 -1.808 0.9609 1.59028e-015 5.96354e-016 7.95139e-016 4.9141 -1.269 0.3591 -3.06907e-007 4.08288e-006 2.61028e-007 3.1477 -1.685 0.8462 -4.08288e-006 -3.06907e-007 2.54824e-006 0.8055 -1.585 0.7955 1.59028e-015 5.96354e-016 7.95139e-016 -1.7069 20.075 5.0056 16.6674 10.4649 -20.7359 -13.6458 -0.047 -4.849 56.0655 4.03173 99.6725 -28.3255 -0.9759 2.2888 2.17215 2.19351 24.692 -22.1583 -0.53 10.8316 6.82905 4.10636 -3.30228 -0.786 0.112 2.5817 -7.95139e-016 -3.50979e-015 -4.96962e-017 -0.3601 -0.878 4.2331 -7.95139e-016 -3.50669e-015 -0 -1.8127 -1.216 2.2227 -7.95139e-016 -3.50669e-015 -0 -0.9571 1.114 1.7695 -7.95139e-016 -3.29237e-016 -4.47266e-016 -4.1246 0.487 4.1451 -2.38542e-015 -7.66501e-014 7.55382e-015 -3.4052 -1.454 2.7682 -1.59028e-015 -9.83052e-015 1.09332e-015 -1.4531 -1.795 1.2713 4.63374e-032 -6.67792e-015 3.97569e-016 -5.6954 0.21 2.1184 -2.38542e-015 -7.66501e-014 7.55382e-015 -3.9766 -1.54 2.3863 -1.59028e-015 -9.83052e-015 1.09332e-015 -1.4042 -1.926 1.125 4.63374e-032 -6.67792e-015 3.97569e-016 -2.0956 0.66 -0.3894 -7.95139e-016 -3.29237e-016 -4.47266e-016 -5.0395 -0.09 2.4971 -2.38542e-015 -7.66501e-014 7.55382e-015 -3.7921 -1.552 1.4806 -1.59028e-015 -9.83052e-015 1.09332e-015 -1.4655 -1.808 0.9609 4.63374e-032 -6.67792e-015 3.97569e-016 -4.9141 -1.269 0.3592 -2.38542e-015 -7.66501e-014 7.55382e-015 -3.1477 -1.685 0.8462 -1.59028e-015 -9.83052e-015 1.09332e-015 -0.8055 -1.585 0.7955 4.63374e-032 -6.67792e-015 3.97569e-016 8.367 -8.2066 0.5982 6.60266 -12.1228 13.7601 2.1923 -43.463 -0.4932 1.94504 40.638 -0.402038 0.7333 -45.8593 -2.6451 -11.0656 -16.9179 1.58264 -8.367 -8.2066 0.5982 -5.56358 -12.2416 -13.694 -2.1923 -43.463 -0.4931 -2.14239 40.8267 0.534451 -0.7333 -45.8593 -2.6451 10.2254 -16.8291 -2.06323 
-0.622753 90.3272 28.8364 -0.00181543 7.81193 -179.974 0 -1.186 -1.5018 0.00676822 3.7725 -0.147209 -1.11022e-016 9.964 0.2134 0.0233508 7.54496 -0.295831 0 13.134 -3.2573 0.0233509 7.54496 -0.295831 5.55112e-017 20.686 -1.6905 3.10594e-007 -20.5412 1.4388e-006 -1.11022e-016 7.238 -0.1237 1.98144e-008 -34.5687 1.93796e-008 1.7069 20.075 5.0056 -23.0203 11.1227 33.8121 13.6458 -0.047 -4.849 -52.6515 6.47059 -100.808 28.3255 -0.9759 2.2888 -8.53308 10.3826 -53.208 22.1583 -0.53 10.8316 -4.43369 -2.13893 21.5583 0.786 0.112 2.5817 -1.59028e-015 8.44835e-015 -1.59028e-015 0.3601 -0.878 4.2331 -4.77083e-015 4.82053e-015 -1.98785e-015 1.8127 -1.216 2.2227 -3.5634e-006 4.79785e-006 3.1559e-006 0.9571 1.114 1.7695 -3.18055e-015 -1.09332e-015 -7.95139e-016 4.1246 0.487 4.1451 -3.18055e-015 5.1684e-015 3.97569e-015 3.4052 -1.454 2.7682 -3.18055e-015 8.99501e-015 -7.95139e-016 1.4531 -1.795 1.2713 -3.5634e-006 4.79785e-006 3.1559e-006 5.6954 0.21 2.1184 -3.18055e-015 5.1684e-015 3.97569e-015 3.9766 -1.54 2.3863 -3.18055e-015 8.99501e-015 -7.95139e-016 1.4042 -1.926 1.125 -3.5634e-006 4.79785e-006 3.1559e-006 2.0956 0.66 -0.3894 -3.18055e-015 -1.09332e-015 -7.95139e-016 5.0395 -0.09 2.4971 -3.18055e-015 5.1684e-015 3.97569e-015 3.7921 -1.552 1.4806 -3.18055e-015 8.99501e-015 -7.95139e-016 1.4655 -1.808 0.9609 -3.5634e-006 4.79785e-006 3.1559e-006 4.9141 -1.269 0.3591 -3.18055e-015 5.1684e-015 3.97569e-015 3.1477 -1.685 0.8462 -3.18055e-015 8.99501e-015 -7.95139e-016 0.8055 -1.585 0.7955 -3.5634e-006 4.79785e-006 3.1559e-006 -1.7069 20.075 5.0056 16.859 10.5832 -21.1433 -13.6458 -0.047 -4.849 56.0516 4.04899 99.6438 -28.3255 -0.9759 2.2888 2.34605 2.32432 25.7352 -22.1583 -0.53 10.8316 6.87565 3.99259 -4.03946 -0.786 0.112 2.5817 -1.59028e-015 2.36678e-015 -6.4605e-016 -0.3601 -0.878 4.2331 -2.25437e-006 -6.08254e-006 1.55314e-006 -1.8127 -1.216 2.2227 -6.97755e-032 5.74612e-015 6.95746e-016 -0.9571 1.114 1.7695 -1.59028e-015 2.36678e-015 -6.4605e-016 -4.1246 0.487 4.1451 -1.59028e-015 -6.75868e-014 7.00716e-015 -3.4052 -1.454 2.7682 -2.25437e-006 -6.08254e-006 1.55314e-006 -1.4531 -1.795 1.2713 1.59028e-015 5.71506e-015 1.98785e-016 -5.6954 0.21 2.1184 -1.59028e-015 -6.75868e-014 7.00716e-015 -3.9766 -1.54 2.3863 -2.25437e-006 -6.08254e-006 1.55314e-006 -1.4042 -1.926 1.125 1.59028e-015 5.71506e-015 1.98785e-016 -2.0956 0.66 -0.3894 -1.59028e-015 2.36678e-015 -6.4605e-016 -5.0395 -0.09 2.4971 -1.59028e-015 -6.75868e-014 7.00716e-015 -3.7921 -1.552 1.4806 -2.25437e-006 -6.08254e-006 1.55314e-006 -1.4655 -1.808 0.9609 1.59028e-015 5.71506e-015 1.98785e-016 -4.9141 -1.269 0.3592 -1.59028e-015 -6.75868e-014 7.00716e-015 -3.1477 -1.685 0.8462 -2.25437e-006 -6.08254e-006 1.55314e-006 -0.8055 -1.585 0.7955 1.59028e-015 5.71506e-015 1.98785e-016 8.367 -8.2066 0.5982 6.6237 -14.0416 13.8399 2.1923 -43.463 -0.4932 1.94579 40.6068 -0.384939 0.7333 -45.8593 -2.6451 -10.9364 -16.503 1.79787 -8.367 -8.2066 0.5982 -5.5835 -14.1477 -13.7706 -2.1923 -43.463 -0.4931 -2.14282 40.7964 0.517198 -0.7333 -45.8593 -2.6451 10.1011 -16.4153 -2.24712 
-0.622837 90.2872 29.343 -0.0019702 6.41156 -179.965 0 -1.186 -1.5018 0.00727063 3.45208 -0.145027 -2.22045e-016 9.964 0.2134 0.0233774 6.90412 -0.291289 0 13.134 -3.2573 0.0233774 6.90412 -0.291289 5.55112e-017 20.686 -1.6905 -4.6931e-007 -20.054 -1.17555e-006 -2.22045e-016 7.238 -0.1237 -8.75688e-008 -33.7547 -1.76184e-007 1.7069 20.075 5.0056 -23.1353 11.1551 34.1983 13.6458 -0.047 -4.849 -52.6514 6.4706 -100.808 28.3255 -0.9759 2.2888 -8.62619 10.6222 -53.8152 22.1583 -0.53 10.8316 -4.35908 -2.40878 22.0826 0.786 0.112 2.5817 2.18997e-006 -1.89118e-006 -1.40486e-006 0.3601 -0.878 4.2331 4.08115e-006 2.98792e-007 -2.55233e-006 1.8127 -1.216 2.2227 2.98792e-007 -4.08115e-006 -2.57396e-007 0.9571 1.114 1.7695 -2.00005e-032 -2.88238e-015 -3.97569e-016 4.1246 0.487 4.1451 2.18997e-006 -1.89118e-006 -1.40486e-006 3.4052 -1.454 2.7682 4.08115e-006 2.98792e-007 -2.55233e-006 1.4531 -1.795 1.2713 2.98792e-007 -4.08115e-006 -2.57396e-007 5.6954 0.21 2.1184 2.18997e-006 -1.89118e-006 -1.40486e-006 3.9766 -1.54 2.3863 4.08115e-006 2.98792e-007 -2.55233e-006 1.4042 -1.926 1.125 2.98792e-007 -4.08115e-006 -2.57396e-007 2.0956 0.66 -0.3894 -2.00005e-032 -2.88238e-015 -3.97569e-016 5.0395 -0.09 2.4971 2.18997e-006 -1.89118e-006 -1.40486e-006 3.7921 -1.552 1.4806 4.08115e-006 2.98792e-007 -2.55233e-006 1.4655 -1.808 0.9609 2.98792e-007 -4.08115e-006 -2.57396e-007 4.9141 -1.269 0.3591 2.18997e-006 -1.89118e-006 -1.40486e-006 3.1477 -1.685 0.8462 4.08115e-006 2.98792e-007 -2.55233e-006 0.8055 -1.585 0.7955 2.98792e-007 -4.08115e-006 -2.57396e-007 -1.7069 20.075 5.0056 17.0515 10.7002 -21.5513 -13.6458 -0.047 -4.849 56.0377 4.06625 99.615 -28.3255 -0.9759 2.2888 2.51765 2.4584 26.7788 -22.1583 -0.53 10.8316 6.92085 3.8782 -4.77671 -0.786 0.112 2.5817 1.59028e-015 1.26725e-015 -4.96962e-016 -0.3601 -0.878 4.2331 6.72431e-033 1.2921e-015 -2.98177e-016 -1.8127 -1.216 2.2227 7.95139e-016 1.29831e-015 -2.98177e-016 -0.9571 1.114 1.7695 1.59028e-015 -1.9133e-015 -9.93923e-017 -4.1246 0.487 4.1451 7.95139e-016 -6.5512e-014 5.76476e-015 -3.4052 -1.454 2.7682 0 1.31695e-015 -0 -1.4531 -1.795 1.2713 1.59028e-015 4.47887e-015 -1.98785e-016 -5.6954 0.21 2.1184 7.95139e-016 -6.5512e-014 5.76476e-015 -3.9766 -1.54 2.3863 0 1.31695e-015 -0 -1.4042 -1.926 1.125 1.59028e-015 4.47887e-015 -1.98785e-016 -2.0956 0.66 -0.3894 1.59028e-015 -1.9133e-015 -9.93923e-017 -5.0395 -0.09 2.4971 7.95139e-016 -6.5512e-014 5.76476e-015 -3.7921 -1.552 1.4806 0 1.31695e-015 -0 -1.4655 -1.808 0.9609 1.59028e-015 4.47887e-015 -1.98785e-016 -4.9141 -1.269 0.3592 7.95139e-016 -6.5512e-014 5.76476e-015 -3.1477 -1.685 0.8462 0 1.31695e-015 -0 -0.8055 -1.585 0.7955 1.59028e-015 4.47887e-015 -1.98785e-016 8.367 -8.2066 0.5982 6.64808 -15.9646 13.9213 2.1923 -43.463 -0.4932 1.94626 40.5748 -0.367921 0.7333 -45.8593 -2.6451 -10.8093 -16.0876 2.01169 -8.367 -8.2066 0.5982 -5.6065 -16.0585 -13.8486 -2.1923 -43.463 -0.4931 -2.14327 40.7659 0.500003 -0.7333 -45.8593 -2.6451 9.97862 -16.001 -2.42969 
